<?xml version="1.0" encoding="UTF-8"?>
<svg width="74px" height="85px" viewBox="0 0 74 85" version="1.1" xmlns="http://www.w3.org/2000/svg" xmlns:xlink="http://www.w3.org/1999/xlink">
    <g id="Bookmark Icon" transform="translate(-12.000000, -6.000000)" fill-rule="nonzero">
        <path d="M22.8836096,81.0542222 L81.09279,81.0542222 L81.09279,84 C81.09279,87.8659932 77.9587832,91 74.09279,91 L19,91 C15.1340068,91 12,87.8659932 12,84 L12,81.1323541 L12,12 C12,8.6862915 14.6862915,6 18,6 L26.5037023,6 L26.4123902,45.7486479 L35.890768,38.1623023 L45.3691458,45.7486479 L45.4604579,6 L79.917037,6 C83.2307455,6 85.917037,8.6862915 85.917037,12 L85.917037,70.8568789 L22.8836096,70.8568789 L22.8836096,81.0542222 Z M64.685476,36.0725024 C65.1557519,35.7950374 65.7396555,35.7950374 66.2099314,36.0725024 L71.2185506,39.0276108 C71.5462196,39.220937 71.9351078,39.2825309 72.3064805,39.199922 C73.1151427,39.0200417 73.6248712,38.2186696 73.4449908,37.4100074 L72.1822641,31.7333487 C72.0637025,31.2003483 72.2441386,30.645023 72.6533467,30.2835054 L77.0115704,26.4332042 C77.2966898,26.1813135 77.4754421,25.8304925 77.5116369,25.4517684 C77.5904508,24.6270989 76.9858154,23.8946808 76.1611459,23.8158668 L70.3721186,23.2626072 C69.8285676,23.2106598 69.3561797,22.8674499 69.1388083,22.3665548 L66.8237194,17.0318293 C66.6722639,16.6828261 66.3938507,16.4044129 66.0448476,16.2529575 C65.2848951,15.923164 64.4014814,16.2718768 64.071688,17.0318293 L61.7565991,22.3665548 C61.5392277,22.8674499 61.0668397,23.2106598 60.5232887,23.2626072 L54.7342614,23.8158668 C54.3555374,23.8520616 54.0047163,24.0308138 53.7528257,24.3159333 C53.2043353,24.9367792 53.262991,25.8847137 53.883837,26.4332042 L58.2420606,30.2835054 C58.6512687,30.645023 58.8317049,31.2003483 58.7131433,31.7333487 L57.4504165,37.4100074 C57.3678077,37.7813802 57.4294015,38.1702683 57.6227277,38.4979373 C58.0436945,39.2114347 58.9633593,39.4485776 59.6768567,39.0276108 L64.685476,36.0725024 Z" id="Combined-Shape"></path>
    </g>
</svg>
