<?xml version="1.0" encoding="UTF-8"?>
<svg width="67px" height="89px" viewBox="0 0 67 89" version="1.1" xmlns="http://www.w3.org/2000/svg" xmlns:xlink="http://www.w3.org/1999/xlink">
  <g id="Bookmark-Tag" transform="translate(-19.000000, -2.000000)" fill="#EAB249" fill-rule="nonzero">
      <path d="M34.2997466,6.83426948 L70.7002534,6.83426948 C72.2466722,6.83426948 73.5002923,8.08788963 73.5002923,9.63430846 L73.5002923,85.2769742 C73.5002923,85.7924472 73.0824189,86.2103206 72.566946,86.2103206 C72.3707912,86.2103206 72.1796223,86.1485202 72.0205875,86.0336959 L53.0463585,72.334166 C52.7201852,72.0986665 52.2798148,72.0986665 51.9536415,72.334166 L32.9794125,86.0336959 C32.5614867,86.3354414 31.9780778,86.2412586 31.6763323,85.8233328 C31.561508,85.6642979 31.4997077,85.473129 31.4997077,85.2769742 L31.4997077,9.63430846 C31.4997077,8.08788963 32.7533278,6.83426948 34.2997466,6.83426948 Z M52.2552507,35.6235736 C52.694181,35.3646027 53.2391653,35.3646027 53.6780956,35.6235736 L58.9658491,38.7433726 C59.2716777,38.9238129 59.634645,38.9813012 59.9812645,38.9041985 C60.7360264,38.7363079 61.2117795,37.9883502 61.0438888,37.2335883 L59.7107894,31.240565 C59.6001303,30.7430911 59.7685397,30.2247802 60.1504726,29.8873591 L64.7515835,25.8224776 C65.0176986,25.5873764 65.1845364,25.2599388 65.2183187,24.9064581 C65.2918794,24.1367559 64.7275452,23.4531561 63.9578429,23.3795954 L57.8461887,22.7955022 C57.3388673,22.7470173 56.8979658,22.4266836 56.695083,21.959175 L54.2509724,16.3271411 C54.1096119,16.0014003 53.849756,15.7415443 53.5240152,15.6001839 C52.8147163,15.2923724 51.9901855,15.6178422 51.682374,16.3271411 L49.2382634,21.959175 C49.0353806,22.4266836 48.594479,22.7470173 48.0871577,22.7955022 L41.9755034,23.3795954 C41.6220227,23.4133776 41.2945852,23.5802154 41.059484,23.8463306 C40.5475524,24.4257949 40.6022985,25.310546 41.1817629,25.8224776 L45.7828737,29.8873591 C46.1648066,30.2247802 46.333216,30.7430911 46.2225569,31.240565 L44.8894575,37.2335883 C44.8123548,37.5802077 44.8698432,37.9431751 45.0502835,38.2490037 C45.4431912,38.9149438 46.3015571,39.1362803 46.9674972,38.7433726 L52.2552507,35.6235736 Z" id="Combined-Shape" transform="translate(52.500000, 46.522329) rotate(-21.000000) translate(-52.500000, -46.522329) "></path>
  </g>
</svg>
