<?xml version="1.0" encoding="UTF-8"?>
<svg width="17px" height="16px" viewBox="0 0 17 16" version="1.1" xmlns="http://www.w3.org/2000/svg" xmlns:xlink="http://www.w3.org/1999/xlink">
    <!-- Generator: Sketch 51.2 (57519) - http://www.bohemiancoding.com/sketch -->
    <title>Shape</title>
    <desc>Created with Sketch.</desc>
    <defs></defs>
    <g id="Post-Page" stroke="none" stroke-width="1" fill="none" fill-rule="evenodd">
        <g id="Desktop-HD-Copy" transform="translate(-1388.000000, -33.000000)" fill="#FFFFFF" fill-rule="nonzero">
            <g id="Group-11">
                <g id="Group-9" transform="translate(21.000000, 18.000000)">
                    <g id="Group-6" transform="translate(1151.000000, 2.000000)">
                        <g id="Group" transform="translate(83.000000, 0.000000)">
                            <g id="arrow-right" transform="translate(133.000000, 13.000000)">
                                <path d="M7.7756159,0.126271499 L7.5216181,0.380233379 C7.35329202,0.548559457 7.35329202,0.821487656 7.5216181,0.989849655 L13.9333114,7.40154298 L0.431052696,7.40154298 C0.193003845,7.40154298 0,7.59454683 0,7.83259568 L0,8.19180626 C0,8.42985511 0.193003845,8.62285896 0.431052696,8.62285896 L13.9333114,8.62285896 L7.5216181,15.0345523 C7.35329202,15.2028784 7.35329202,15.4758066 7.5216181,15.6441686 L7.7756159,15.8981304 C7.94394198,16.0664565 8.21687018,16.0664565 8.38519626,15.8981304 L15.9663715,8.31699115 C16.1346975,8.14866507 16.1346975,7.87573687 15.9663715,7.70737487 L8.38519626,0.126271499 C8.21687018,-0.0420904997 7.94394198,-0.0420904997 7.7756159,0.126271499 Z" id="Shape"></path>
                            </g>
                        </g>
                    </g>
                </g>
            </g>
        </g>
    </g>
</svg>