<?xml version="1.0" encoding="UTF-8"?>
<svg width="1928px" height="1146px" viewBox="0 0 1928 1146" version="1.1" xmlns="http://www.w3.org/2000/svg" xmlns:xlink="http://www.w3.org/1999/xlink">
    <g stroke="none" stroke-width="1" fill="none" fill-rule="evenodd">
        <g transform="translate(896.507893, 573.519896) rotate(-11.000000) translate(-896.507893, -573.519896) translate(-591.492107, -99.480104)" fill="#FFFFFF" fill-rule="nonzero">
            <rect id="Rectangle" opacity="0.0935825893" x="864.4801" y="452.384393" width="1045.20364" height="119.714954"></rect>
            <rect id="Rectangle-Copy-4" opacity="0.120200893" x="1902.7771" y="47.1953184" width="839.155783" height="150.794798"></rect>
            <rect id="Rectangle-Copy-15" opacity="0.0651785714" x="1829.10636" y="301.589595" width="857.573468" height="150.794798"></rect>
            <rect id="Rectangle-Copy-12" opacity="0.174274554" x="1045.20364" y="150.794798" width="857.573468" height="150.794798"></rect>
            <rect id="Rectangle-Copy-5" opacity="0.21015625" x="278.567489" y="301.589595" width="857.573468" height="150.794798"></rect>
            <rect id="Rectangle-Copy-8" opacity="0.230022321" x="187.630168" y="0" width="857.573468" height="150.794798"></rect>
            <rect id="Rectangle-Copy" opacity="0.158984375" x="1282.33133" y="572.099347" width="1045.20364" height="150.794798"></rect>
            <rect id="Rectangle-Copy-13" opacity="0.181640625" x="2327.53497" y="452.384393" width="414.397917" height="150.794798"></rect>
            <rect id="Rectangle-Copy-2" opacity="0.05625" x="0" y="572.099347" width="1045.20364" height="204.896748"></rect>
            <rect id="Rectangle-Copy-3" opacity="0.111607143" x="1045.20364" y="722.894145" width="839.155783" height="150.794798"></rect>
            <rect id="Rectangle-Copy-6" opacity="0.152399554" x="1541.33003" y="873.688942" width="1434.27724" height="150.794798"></rect>
            <rect id="Rectangle-Copy-7" opacity="0.0841517857" x="0" y="949.661894" width="1541.33003" height="150.794798"></rect>
            <rect id="Rectangle-Copy-9" opacity="0.305803571" x="1160.31417" y="1100.45669" width="668.792194" height="150.794798"></rect>
            <rect id="Rectangle-Copy-10" opacity="0.199720982" x="2073.14069" y="1175.27854" width="668.792194" height="150.794798"></rect>
            <rect id="Rectangle-Copy-11" opacity="0.196651786" x="1829.10636" y="1024.48374" width="579.005979" height="150.794798"></rect>
        </g>
    </g>
</svg>
