<?xml version="1.0" encoding="UTF-8"?>
<svg width="529px" height="165px" viewBox="0 0 529 165" version="1.1" xmlns="http://www.w3.org/2000/svg" xmlns:xlink="http://www.w3.org/1999/xlink">
    <g stroke="none" stroke-width="1" fill="none" fill-rule="evenodd">
        <path d="M87.5908869,56.2180892 C87.4016449,56.9739206 86.9200476,57.6535049 86.2011522,58.0762267 C82.8836632,60.0269623 80.7923383,61.3281091 79.9271776,61.9796669 C76.4159987,64.6239571 71.7633381,65.718894 68.7268218,65.718894 C66.96986,65.718894 64.5467777,66.722048 62.5872449,69.2515599 C61.2992769,70.9141655 58.5713981,76.4424459 58.9920088,79.1433953 C59.0014285,79.2038841 59.0100547,79.2627072 59.017904,79.3199414 C67.4863391,82.871153 75.1262223,84.6467588 81.9375536,84.6467588 C89.5268282,84.6467588 98.1447257,82.442396 107.791246,78.0336705 L107.791256,78.0336933 C107.982681,77.9462072 108.179097,77.883445 108.376914,77.8440684 C108.553792,77.7980924 108.738466,77.7708257 108.92878,77.7645683 C109.410465,77.7487309 109.886541,77.8717693 110.300235,78.1190109 L110.300214,78.1190448 C119.879851,83.8442541 128.374451,86.7068588 135.784015,86.7068588 C143.19653,86.7068588 151.719271,83.841973 161.352237,78.1122014 L161.352255,78.1122328 C161.870256,77.8041215 162.455201,77.7070692 163.007128,77.7956786 C163.356121,77.8075146 163.699638,77.8882974 164.017772,78.0336933 L164.017783,78.0336705 C173.664303,82.442396 182.2822,84.6467588 189.871475,84.6467588 C196.737215,84.6467588 204.444796,82.8426729 212.994218,79.2345013 C212.998605,79.2045577 213.003195,79.1741924 213.007991,79.1433953 C213.428602,76.4424459 210.700723,70.9141655 209.412755,69.2515599 C207.453222,66.722048 205.03014,65.718894 203.273178,65.718894 C200.236662,65.718894 195.584001,64.6239571 192.072822,61.9796669 C191.294344,61.3933898 190.431896,60.7988698 189.485481,60.1961071 C189.022172,59.9010306 188.652918,59.4872562 188.41197,59.0037734 C173.374305,44.0771023 155.871823,36.6137668 135.904525,36.6137668 C116.553736,36.6137668 100.449189,43.1485409 87.5908869,56.2180892 Z M82.5530903,51.7159186 L82.5261557,51.6581814 C97.9877764,36.8497201 115.780566,29.4454895 135.904525,29.4454895 C156.028484,29.4454895 173.818976,36.7838222 189.276002,51.4604877 L189.276002,51.4646235 C189.2911,51.4799399 189.305919,51.4956789 189.320444,51.5118398 L189.320484,51.5118033 C193.114254,55.7328917 197.765152,57.8434358 203.273178,57.8434358 C210.804789,57.8434358 216.154922,64.4397248 219.323579,77.6323027 C219.345995,77.7256296 219.363919,77.8199785 219.377285,77.9150244 C219.59875,79.489336 219.691802,80.6093307 219.656442,81.2750085 C219.641493,81.556425 219.580289,82.1953788 219.472772,83.1918634 L219.472772,83.2872646 C219.472772,84.1871435 219.06882,85.0394956 218.372309,85.6092799 C216.270554,87.3286306 213.757509,88.7503105 210.833175,89.8743196 L194.352265,132.808558 C194.261336,133.300599 194.050336,133.750539 193.750788,134.126853 C193.010146,135.184241 191.646166,135.668556 190.377263,135.25994 L161.189397,135.25994 C159.532543,135.25994 158.189397,133.916794 158.189397,132.25994 L158.189397,129.849174 C158.189397,128.19232 159.532543,126.849174 161.189397,126.849174 L187.630708,126.849174 L200.875069,92.3464339 C197.534708,92.8204947 193.866843,93.0575251 189.871475,93.0575251 C178.178431,93.0575251 169.290542,91.0272931 163.207811,86.9668291 C157.238714,93.1388338 148.097449,96.2248361 135.784015,96.2248361 C123.54778,96.2248361 114.428529,93.1774079 108.426263,87.0825515 C102.348552,91.0658672 93.5189821,93.0575251 81.9375536,93.0575251 C78.062319,93.0575251 74.4951888,92.8345345 71.236163,92.3885534 L84.4643558,126.849174 L137.815758,126.849174 C139.472612,126.849174 140.815758,128.19232 140.815758,129.849174 L140.815758,132.25994 C140.815758,133.916794 139.472612,135.25994 137.815758,135.25994 L80.4067365,135.25994 C78.7498822,135.25994 77.4067365,133.916794 77.4067365,132.25994 L77.4067365,131.933086 L61.3105095,90.0009809 C58.2428137,88.8577671 55.6182128,87.3938633 53.436707,85.6092694 C52.7402053,85.0394788 52.3362556,84.1871298 52.3362556,83.2872543 L52.3362556,80.4413756 C52.3362556,80.2612232 52.3542512,80.0852738 52.3885428,79.9152271 C52.4352749,79.3593203 52.5133324,78.692586 52.6227153,77.9150244 C52.6360815,77.8199785 52.6540054,77.7256296 52.6764212,77.6323027 C55.8450776,64.4397248 61.1952112,57.8434358 68.7268218,57.8434358 C74.641204,57.8434358 79.1595569,55.8973832 82.2818804,52.0052779 L82.2819003,52.0052938 C82.3660574,51.9003886 82.4568108,51.803891 82.5530903,51.7159186 Z M138.01682,40.5838527 C140.308857,40.5838527 140.443101,41.9617885 138.316662,43.6615584 L121.632214,56.9982828 C119.505776,58.6980526 115.923894,60.0759884 113.631858,60.0759884 C111.339821,60.0759884 111.205578,58.6980526 113.332016,56.9982828 L130.016464,43.6615584 C132.142902,41.9617885 135.724784,40.5838527 138.01682,40.5838527 Z M153.836807,43.3684436 C156.128844,43.3684436 156.263088,44.7463793 154.136649,46.4461492 L142.382711,57.4475205 C140.256273,59.1472903 136.674391,60.5252261 134.382354,60.5252261 C132.090318,60.5252261 131.956074,59.1472903 134.082512,57.4475205 L145.836451,46.4461492 C147.962889,44.7463793 151.544771,43.3684436 153.836807,43.3684436 Z M28.411734,114.787325 C28.411734,110.168613 27.6380033,106.167579 26.0905187,102.784103 C24.5430341,99.4006276 22.6220475,96.5811069 20.3275014,94.3254565 C18.0329552,92.0698061 15.5783613,90.4049463 12.9636459,89.3308271 C10.3489305,88.2567078 8.02773845,87.7196563 6,87.7196563 L6,76.4414608 C8.02773845,76.4414608 10.3489305,75.984967 12.9636459,75.0719656 C15.5783613,74.1589643 18.0329552,72.6552199 20.3275014,70.5606874 C22.6220475,68.4661549 24.5430341,65.7540446 26.0905187,62.424275 C27.6380033,59.0945054 28.411734,54.9592084 28.411734,50.0182599 L28.411734,33.5843179 C28.411734,29.7174887 29.0253825,26.1729484 30.2526978,22.9505908 C31.4800132,19.7282331 33.1875568,16.935565 35.3753799,14.5725027 C37.5632029,12.2094404 40.1778791,10.3566125 43.2194868,9.01396348 C46.2610944,7.67131445 49.5961406,7 53.2247251,7 L76.4368782,7 L76.4368782,18.2781955 L58.8276586,18.2781955 C52.1041048,18.2781955 47.4350403,19.8893502 44.8203249,23.1117078 C42.2056095,26.3340655 40.8982715,31.1138244 40.8982715,37.4511278 L40.8982715,53.0794844 C40.8982715,57.4833733 40.0978604,61.4038496 38.4970143,64.8410311 C36.8961681,68.2782127 34.9751816,71.1514385 32.7339969,73.4607948 C30.4928123,75.7701512 28.1983006,77.5961265 25.8503929,78.9387755 C23.5024853,80.2814245 21.5814987,81.0601493 20.0873756,81.2749731 L20.0873756,82.2416756 C21.4747756,82.4564995 23.3424015,83.2889294 25.6903091,84.7389903 C28.0382168,86.1890513 30.3327285,88.1761421 32.5739131,90.7003222 C34.8150977,93.2245024 36.7627647,96.2051386 38.4169723,99.6423201 C40.07118,103.079502 40.8982715,106.892568 40.8982715,111.081633 L40.8982715,126.548872 C40.8982715,133.100999 42.2856506,137.934463 45.0604506,141.049409 C47.8352506,144.164355 52.4776348,145.721805 58.9877425,145.721805 L76.4368782,145.721805 L76.4368782,157 L53.2247251,157 C45.7541098,157 39.7510268,154.771236 35.2152961,150.313641 C30.6795653,145.856046 28.411734,139.277165 28.411734,130.576799 L28.411734,114.787325 Z M243.588266,114.787325 L243.588266,130.576799 C243.588266,139.277165 241.320435,145.856046 236.784704,150.313641 C232.248973,154.771236 226.24589,157 218.775275,157 L195.563122,157 L195.563122,145.721805 L213.012258,145.721805 C219.522365,145.721805 224.164749,144.164355 226.939549,141.049409 C229.714349,137.934463 231.101729,133.100999 231.101729,126.548872 L231.101729,111.081633 C231.101729,106.892568 231.92882,103.079502 233.583028,99.6423201 C235.237235,96.2051386 237.184902,93.2245024 239.426087,90.7003222 C241.667271,88.1761421 243.961783,86.1890513 246.309691,84.7389903 C248.657599,83.2889294 250.525224,82.4564995 251.912624,82.2416756 L251.912624,81.2749731 C250.418501,81.0601493 248.497515,80.2814245 246.149607,78.9387755 C243.801699,77.5961265 241.507188,75.7701512 239.266003,73.4607948 C237.024818,71.1514385 235.103832,68.2782127 233.502986,64.8410311 C231.90214,61.4038496 231.101729,57.4833733 231.101729,53.0794844 L231.101729,37.4511278 C231.101729,31.1138244 229.79439,26.3340655 227.179675,23.1117078 C224.56496,19.8893502 219.895895,18.2781955 213.172341,18.2781955 L195.563122,18.2781955 L195.563122,7 L218.775275,7 C222.403859,7 225.738906,7.67131445 228.780513,9.01396348 C231.822121,10.3566125 234.436797,12.2094404 236.62462,14.5725027 C238.812443,16.935565 240.519987,19.7282331 241.747302,22.9505908 C242.974618,26.1729484 243.588266,29.7174887 243.588266,33.5843179 L243.588266,50.0182599 C243.588266,54.9592084 244.361997,59.0945054 245.909481,62.424275 C247.456966,65.7540446 249.377953,68.4661549 251.672499,70.5606874 C253.967045,72.6552199 256.421639,74.1589643 259.036354,75.0719656 C261.651069,75.984967 263.972262,76.4414608 266,76.4414608 L266,87.7196563 C263.972262,87.7196563 261.651069,88.2567078 259.036354,89.3308271 C256.421639,90.4049463 253.967045,92.0698061 251.672499,94.3254565 C249.377953,96.5811069 247.456966,99.4006276 245.909481,102.784103 C244.361997,106.167579 243.588266,110.168613 243.588266,114.787325 Z" id="Combined-Shape-Copy" fill="#FFFFFF" fill-rule="nonzero"></path>
        <path d="M325.030734,37.6133768 C322.909177,36.6455906 319.242629,36.1617047 314.030979,36.1617047 C312.555113,36.1617047 310.664189,36.2308313 308.358149,36.3690865 C308.265907,37.9359785 307.850826,41.4383904 307.112894,46.8764274 C313.24696,46.8764274 317.051868,46.7842587 318.527734,46.5999184 C318.619976,47.5216196 318.666096,48.3280961 318.666096,49.0193719 C318.666096,52.0149008 317.651453,53.6278537 315.622138,53.858279 C314.515239,53.9504491 311.332952,53.9965334 306.075181,53.9965334 C305.152765,61.5083981 304.691564,66.1629192 304.691564,67.9602365 C305.982946,68.0524067 307.45879,68.098491 309.119138,68.098491 C311.563541,68.098491 314.065556,67.9487168 316.625261,67.6491639 C319.184965,67.3496111 320.856819,66.9924572 321.640872,66.5776917 C322.009839,68.3289239 322.194319,69.6192862 322.194319,70.4488173 C322.194319,72.6609001 321.387217,73.9973468 319.772989,74.4581974 C318.158761,74.919048 314.515273,75.1494698 308.842415,75.1494698 C301.785933,75.1494698 297.519823,75.1033855 296.043957,75.0112153 C294.937058,74.9651303 294.153016,74.7577506 293.691809,74.3890701 C293.230601,74.0203897 293,73.4212929 293,72.5917618 C293,71.3013802 293.772512,65.0339061 295.317559,53.7891517 C296.862605,42.5443973 297.635117,35.0556875 297.635117,31.3227977 C297.635117,30.4932667 297.612057,29.9172121 297.565936,29.5946166 C303.00819,29.1798511 308.450363,28.9724715 313.892617,28.9724715 C320.949099,28.9724715 324.915428,29.4102729 325.791723,30.2858891 C326.16069,30.6545695 326.34517,31.2997507 326.34517,32.2214519 C326.34517,34.0648542 325.907029,35.8621446 325.030734,37.6133768 Z M330.014693,49.6415171 C330.014693,47.2911791 329.576552,45.1943404 328.700257,43.350938 C330.406727,42.1066414 332.597432,41.4845024 335.272438,41.4845024 C337.486236,41.4845024 339.03126,41.933825 339.907555,42.8324837 C340.78385,43.7311423 341.221991,45.0791101 341.221991,46.8764274 C341.221991,48.2128941 340.85303,50.8051398 340.115098,54.6532423 C339.377165,58.5013447 339.008204,61.4622653 339.008204,63.536093 C339.008204,65.2873252 339.192684,66.8081094 339.561651,68.098491 C341.221999,67.6376404 342.709373,66.2551094 344.023816,63.9508564 C345.338258,61.6466035 346.295251,59.1580476 346.894821,56.4851142 C347.494391,53.8121808 347.794172,51.3236249 347.794172,49.0193719 C347.794172,46.4846937 347.448271,44.5491502 346.756459,43.2126835 C348.232325,42.060557 350.146309,41.4845024 352.49847,41.4845024 C354.158819,41.4845024 355.553952,41.8646985 356.683911,42.625102 C357.813871,43.3855054 358.378842,44.5260935 358.378842,46.0469005 C358.378842,48.2589833 357.790811,51.0010032 356.61473,54.2730424 C355.43865,57.5450816 353.870567,60.7825085 351.910433,63.9854201 C349.950299,67.1883317 347.448283,69.9303516 344.40431,72.211562 C341.360338,74.4927724 338.22417,75.6333605 334.995715,75.6333605 C333.888815,75.6333605 332.874173,75.4490231 331.951757,75.0803426 C329.691838,73.098685 328.561895,70.0110324 328.561895,65.817292 C328.561895,63.7434643 328.804026,61.197303 329.288294,58.1787316 C329.772563,55.1601603 330.014693,52.3144506 330.014693,49.6415171 Z M372.563855,58.2132953 C374.408687,58.2132953 375.86147,57.4413821 376.922248,55.8975326 C377.983027,54.3536831 378.513408,52.5679139 378.513408,50.5401713 C378.513408,49.7106402 378.282807,49.0193747 377.821599,48.466354 C377.360391,47.9133333 376.83001,47.6368271 376.23044,47.6368271 C375.123541,47.6368271 374.120428,48.5930777 373.221073,50.5056077 C372.321717,52.4181376 371.756746,54.9642989 371.526142,58.144168 C371.756746,58.1902531 372.102647,58.2132953 372.563855,58.2132953 Z M382.871801,65.6790375 C383.886459,66.1859732 384.751211,66.8311543 385.466083,67.6146003 C386.180956,68.3980463 386.538387,69.1814806 386.538387,69.9649266 C386.538387,71.5779037 385.350794,72.9258714 382.975573,74.0088703 C380.600352,75.0918692 377.867735,75.6333605 374.777642,75.6333605 C370.811253,75.6333605 367.409895,74.6540677 364.573466,72.6954527 C361.737037,70.7368377 360.318844,67.7067905 360.318844,63.6052202 C360.318844,57.7985028 362.175178,52.6485747 365.887902,48.1552814 C369.600627,43.6619881 374.339468,41.4153752 380.104567,41.4153752 C382.733453,41.4153752 384.958748,42.1527251 386.780519,43.627447 C388.602291,45.1021689 389.513163,47.1298811 389.513163,49.7106444 C389.513163,53.8122146 387.97967,57.0035571 384.912637,59.2847675 C381.845603,61.565978 377.983045,62.7065661 373.324844,62.7065661 C372.771394,62.7065661 372.079593,62.6604817 371.249418,62.5683116 C371.249418,67.1307324 373.071163,69.4119086 376.714706,69.4119086 C379.112987,69.4119086 381.165332,68.1676307 382.871801,65.6790375 Z M405.70442,57.4528956 C405.058729,62.8909326 404.735888,67.0615679 404.735888,69.9649266 C404.735888,71.024883 404.828129,72.3382874 405.012612,73.9051794 C403.260021,74.6886255 401.322977,75.0803426 399.20142,75.0803426 C395.650119,75.0803426 393.874495,73.7899803 393.874495,71.209217 C393.874495,70.9787917 394.335696,67.8565757 395.258112,61.8424755 C396.180528,55.8283753 396.641729,52.1070626 396.641729,50.6784258 C396.641729,48.6506832 395.926867,47.4755318 394.497122,47.1529364 C394.773847,45.4017041 395.592479,44.007652 396.953043,42.9707382 C398.313606,41.9338243 399.82404,41.4153752 401.484388,41.4153752 C405.404656,41.4153752 407.364761,43.3278765 407.364761,47.1529364 C407.364761,47.2451065 407.353231,47.4179229 407.33017,47.6713907 C407.30711,47.9248585 407.29558,48.1207171 407.29558,48.2589723 C408.679204,46.0929745 410.351058,44.4339372 412.311191,43.2818108 C414.271325,42.1296843 416.15072,41.5536297 417.949431,41.5536297 C420.393833,41.5536297 422.284757,42.3025007 423.622261,43.8002651 C424.959764,45.2980295 425.628505,47.2450941 425.628505,49.6415171 C425.628505,50.4710482 425.155774,53.1785048 424.210298,57.7639682 C423.264821,62.3494316 422.79209,65.1720991 422.79209,66.2320555 C422.79209,68.0754578 423.576132,69.4579889 425.144239,70.37969 C424.59079,72.0387522 423.645328,73.3291145 422.307824,74.2508157 C420.970321,75.1725168 419.517538,75.6333605 417.949431,75.6333605 C416.289082,75.6333605 414.882419,75.1149114 413.729399,74.0779976 C412.576379,73.0410837 411.999878,71.6239894 411.999878,69.8266721 C411.999878,68.3519502 412.438019,65.3910296 413.314314,60.9438214 C414.190609,56.4966132 414.62875,53.4204816 414.62875,51.7153344 C414.62875,49.1345711 413.867768,47.8442088 412.345782,47.8442088 C411.238883,47.8442088 410.00517,48.8119805 408.644606,50.747553 C407.284043,52.6831255 406.303991,54.9182173 405.70442,57.4528956 Z M439.744337,41.4153752 C443.249518,41.4153752 445.002082,43.4891718 445.002082,47.6368271 C445.002082,49.4802294 444.49476,52.7522196 443.480103,57.4528956 C442.465445,62.1535716 441.958124,65.0568868 441.958124,66.1629282 C441.958124,68.0063306 442.696046,69.3888616 444.171911,70.3105628 C443.52622,72.0617951 442.569228,73.3867206 441.300906,74.2853793 C440.032584,75.1840379 438.637451,75.6333605 437.115465,75.6333605 C433.195197,75.6333605 431.235092,73.5365218 431.235092,69.3427814 C431.235092,67.1767836 431.753943,63.7665404 432.791661,59.1119494 C433.829379,54.4573585 434.348231,51.5540433 434.348231,50.4019168 C434.348231,48.4202593 433.633369,47.3372766 432.203624,47.1529364 C432.434228,45.5399593 433.25286,44.1804705 434.659544,43.074429 C436.066229,41.9683876 437.761143,41.4153752 439.744337,41.4153752 Z M440.712869,38.235522 C438.960278,38.235522 437.634325,37.7170729 436.73497,36.6801591 C435.835614,35.6432452 435.385943,34.3874462 435.385943,32.9127243 C435.385943,31.115407 435.997035,29.5139752 437.219236,28.1083809 C438.441437,26.7027866 440.090231,26 442.165667,26 C443.872136,26 445.186559,26.5530124 446.108975,27.6590538 C447.031391,28.7650953 447.492592,30.0784997 447.492592,31.5993067 C447.492592,33.396624 446.904561,34.9519714 445.72848,36.2653956 C444.5524,37.5788198 442.880546,38.235522 440.712869,38.235522 Z M462.992041,57.4528956 C462.34635,62.8909326 462.023509,67.0615679 462.023509,69.9649266 C462.023509,71.024883 462.115749,72.3382874 462.300232,73.9051794 C460.547642,74.6886255 458.610598,75.0803426 456.489041,75.0803426 C452.937739,75.0803426 451.162115,73.7899803 451.162115,71.209217 C451.162115,70.9787917 451.623316,67.8565757 452.545732,61.8424755 C453.468148,55.8283753 453.929349,52.1070626 453.929349,50.6784258 C453.929349,48.6506832 453.214488,47.4755318 451.784743,47.1529364 C452.061468,45.4017041 452.8801,44.007652 454.240663,42.9707382 C455.601227,41.9338243 457.11166,41.4153752 458.772009,41.4153752 C462.692277,41.4153752 464.652381,43.3278765 464.652381,47.1529364 C464.652381,47.2451065 464.640851,47.4179229 464.617791,47.6713907 C464.59473,47.9248585 464.5832,48.1207171 464.5832,48.2589723 C465.966824,46.0929745 467.638678,44.4339372 469.598812,43.2818108 C471.558946,42.1296843 473.43834,41.5536297 475.237051,41.5536297 C477.681454,41.5536297 479.572378,42.3025007 480.909881,43.8002651 C482.247384,45.2980295 482.916126,47.2450941 482.916126,49.6415171 C482.916126,50.4710482 482.443395,53.1785048 481.497918,57.7639682 C480.552442,62.3494316 480.079711,65.1720991 480.079711,66.2320555 C480.079711,68.0754578 480.863753,69.4579889 482.43186,70.37969 C481.87841,72.0387522 480.932948,73.3291145 479.595445,74.2508157 C478.257942,75.1725168 476.805159,75.6333605 475.237051,75.6333605 C473.576703,75.6333605 472.170039,75.1149114 471.01702,74.0779976 C469.864,73.0410837 469.287498,71.6239894 469.287498,69.8266721 C469.287498,68.3519502 469.725639,65.3910296 470.601934,60.9438214 C471.47823,56.4966132 471.916371,53.4204816 471.916371,51.7153344 C471.916371,49.1345711 471.155389,47.8442088 469.633402,47.8442088 C468.526503,47.8442088 467.292791,48.8119805 465.932227,50.747553 C464.571663,52.6831255 463.591611,54.9182173 462.992041,57.4528956 Z M505.679564,41.5536297 C510.798972,41.5536297 515.572403,43.0744138 520,46.1160277 C518.524134,52.3375107 517.394192,58.4897738 516.610138,64.5730016 C516.471776,65.4947028 516.321886,66.7965862 516.160463,68.4786909 C515.99904,70.1607955 515.86068,71.5087633 515.745378,72.5226346 C515.630076,73.5365059 515.445595,74.803826 515.191931,76.324633 C514.938266,77.8454399 514.661546,79.0897178 514.361761,80.0575041 C514.061975,81.0252903 513.646895,82.1313151 513.116505,83.3756117 C512.586116,84.6199083 511.986555,85.6337644 511.317803,86.4172104 C510.649052,87.2006564 509.80736,88.018654 508.792702,88.8712276 C507.778045,89.7238012 506.659632,90.3805034 505.437431,90.841354 C504.21523,91.3022046 502.773976,91.6824006 501.113628,91.9819535 C499.453279,92.2815064 497.631535,92.4312806 495.64834,92.4312806 C492.74273,92.4312806 490.321425,92.0280424 488.384351,91.2215538 C486.447278,90.4150653 485.478755,89.2744772 485.478755,87.7997553 C485.478755,86.6015438 485.963016,85.5531244 486.931553,84.6544657 C487.90009,83.7558071 488.891672,83.0991048 489.90633,82.6843393 C491.197712,85.0346773 493.342297,86.2098287 496.340149,86.2098287 C502.243611,86.2098287 505.425898,80.610578 505.887106,69.4119086 C504.549603,71.5779064 503.02764,73.156296 501.32117,74.1471248 C499.614701,75.1379536 498.000497,75.6333605 496.478511,75.6333605 C493.5729,75.6333605 491.393725,74.4236459 489.94092,72.0041803 C488.488115,69.5847147 487.761723,66.6468362 487.761723,63.1904568 C487.761723,57.3376543 489.479697,52.2683738 492.915697,47.9824633 C496.351696,43.6965528 500.606276,41.5536297 505.679564,41.5536297 Z M501.667074,69.4810359 C502.451128,69.4810359 503.41965,68.8012915 504.57267,67.4417822 C505.72569,66.082273 506.671152,64.2273772 507.409085,61.8770392 C507.639689,60.5866575 507.93947,58.5589453 508.308436,55.7938418 C508.677403,53.0287382 508.954123,51.1623213 509.138606,50.1945351 C507.847224,48.5354729 506.440561,47.7059543 504.918574,47.7059543 C503.119863,47.7059543 501.63249,49.0193588 500.45641,51.6462072 C499.280329,54.2730555 498.692298,57.4759191 498.692298,61.254894 C498.692298,63.6974021 498.957489,65.6790299 499.487878,67.1998369 C500.018267,68.7206438 500.744659,69.4810359 501.667074,69.4810359 Z M305.660096,120.681281 C304.783801,127.824465 304.34566,132.156395 304.34566,133.677202 C304.34566,135.244094 304.4379,136.603583 304.622383,137.75571 C303.100397,138.262645 301.001932,138.516109 298.326926,138.516109 C296.389852,138.516109 295.017779,138.170477 294.210665,137.479201 C293.403551,136.787925 293,135.704942 293,134.23022 C293,133.95371 293.12683,132.985938 293.380495,131.326876 C293.634159,129.667814 294.04924,126.67233 294.62575,122.340334 C295.20226,118.008339 295.813351,113.261649 296.459043,108.100122 C297.289217,100.956938 297.704298,95.795489 297.704298,92.6156199 C301.347841,92.0625992 305.12969,91.786093 309.049957,91.786093 C311.448239,91.786093 313.627414,91.9819515 315.587548,92.3736746 C317.547682,92.7653976 319.392486,93.4220998 321.122016,94.343801 C322.851546,95.2655022 324.200559,96.5904277 325.169096,98.3186175 C326.137632,100.046807 326.621894,102.132125 326.621894,104.574633 C326.621894,110.19701 325.13452,114.655673 322.159729,117.950754 C319.184937,121.245836 315.829699,122.893352 312.093915,122.893352 C309.51115,122.893352 307.366565,122.156002 305.660096,120.681281 Z M310.91784,98.6988173 C310.087666,98.6988173 309.188324,98.790986 308.219787,98.9753263 C307.758579,104.090768 307.366558,107.800559 307.043713,110.104812 L306.351904,114.66721 C307.689407,115.496742 308.88853,115.911501 309.949308,115.911501 C311.74802,115.911501 313.200803,114.932208 314.307702,112.973593 C315.414601,111.014978 315.968043,108.468817 315.968043,105.335033 C315.968043,102.846439 315.529902,101.118276 314.653606,100.150489 C313.777311,99.1827032 312.532068,98.6988173 310.91784,98.6988173 Z M338.523938,104.782015 C342.029119,104.782015 343.781683,106.855811 343.781683,111.003467 C343.781683,112.846869 343.274361,116.118859 342.259704,120.819535 C341.245046,125.520211 340.737725,128.423526 340.737725,129.529568 C340.737725,131.37297 341.475647,132.755501 342.951512,133.677202 C342.305821,135.428435 341.348829,136.75336 340.080507,137.652019 C338.812185,138.550677 337.417052,139 335.895066,139 C331.974798,139 330.014693,136.903161 330.014693,132.709421 C330.014693,130.543423 330.533544,127.13318 331.571262,122.478589 C332.60898,117.823998 333.127832,114.920683 333.127832,113.768556 C333.127832,111.786899 332.41297,110.703916 330.983225,110.519576 C331.213829,108.906599 332.032461,107.54711 333.439145,106.441069 C334.84583,105.335027 336.540744,104.782015 338.523938,104.782015 Z M339.49247,101.602162 C337.73988,101.602162 336.413926,101.083712 335.514571,100.046799 C334.615215,99.0098847 334.165544,97.7540857 334.165544,96.2793638 C334.165544,94.4820465 334.776636,92.8806147 335.998837,91.4750204 C337.221038,90.0694261 338.869832,89.3666395 340.945268,89.3666395 C342.651737,89.3666395 343.96616,89.9196519 344.888576,91.0256933 C345.810992,92.1317347 346.272193,93.4451392 346.272193,94.9659462 C346.272193,96.7632635 345.684162,98.3186109 344.508082,99.6320351 C343.332001,100.945459 341.660147,101.602162 339.49247,101.602162 Z M361.010652,121.579935 C362.855484,121.579935 364.308268,120.808022 365.369046,119.264172 C366.429824,117.720323 366.960206,115.934553 366.960206,113.906811 C366.960206,113.07728 366.729605,112.386014 366.268397,111.832993 C365.807189,111.279973 365.276808,111.003467 364.677238,111.003467 C363.570338,111.003467 362.567226,111.959717 361.667871,113.872247 C360.768515,115.784777 360.203544,118.330938 359.97294,121.510808 C360.203544,121.556893 360.549445,121.579935 361.010652,121.579935 Z M371.318599,129.045677 C372.333257,129.552613 373.198009,130.197794 373.912881,130.98124 C374.627754,131.764686 374.985184,132.54812 374.985184,133.331566 C374.985184,134.944543 373.797592,136.292511 371.422371,137.37551 C369.047149,138.458509 366.314533,139 363.22444,139 C359.258051,139 355.856693,138.020707 353.020264,136.062092 C350.183835,134.103477 348.765642,131.07343 348.765642,126.97186 C348.765642,121.165142 350.621976,116.015214 354.3347,111.521921 C358.047425,107.028628 362.786266,104.782015 368.551365,104.782015 C371.180251,104.782015 373.405546,105.519365 375.227317,106.994086 C377.049089,108.468808 377.959961,110.496521 377.959961,113.077284 C377.959961,117.178854 376.426467,120.370197 373.359434,122.651407 C370.292401,124.932617 366.429842,126.073206 361.771642,126.073206 C361.218192,126.073206 360.526391,126.027121 359.696216,125.934951 C359.696216,130.497372 361.517961,132.778548 365.161504,132.778548 C367.559785,132.778548 369.61213,131.53427 371.318599,129.045677 Z" fill="#FFFFFF"></path>
    </g>
</svg>
