<?xml version="1.0" encoding="UTF-8"?>
<svg width="164px" height="94px" viewBox="0 0 164 94" version="1.1" xmlns="http://www.w3.org/2000/svg" xmlns:xlink="http://www.w3.org/1999/xlink">
    <g id="Logo/White" stroke="none" stroke-width="1" fill="none" fill-rule="evenodd">
        <path d="M49.9813193,31.9895297 C49.8251996,32.135156 49.651251,32.2660779 49.4604983,32.3789033 C47.8873293,33.3093923 46.869986,33.9473081 46.4084683,34.2926509 C44.2042933,35.9419828 41.2835427,36.6249315 39.3773415,36.6249315 C38.2743926,36.6249315 36.7532803,37.2506321 35.5231654,38.828373 C34.7146316,39.8653955 33.0021805,43.3135683 33.2662228,44.9982404 C33.2721361,45.0359693 33.2775513,45.0726592 33.2824788,45.1083581 C38.5986171,47.3233671 43.3946243,48.4308717 47.6705005,48.4308717 C52.4379282,48.4308717 57.8519487,47.0540949 63.9125619,44.3005415 L63.9125445,44.3005033 C64.0091713,44.2566023 64.1078054,44.2227581 64.2072704,44.1985295 C64.3349147,44.1601424 64.4695741,44.1374832 64.6090821,44.1328667 C64.9091737,44.1229362 65.205832,44.1991585 65.4639685,44.352518 C71.4823576,47.9280552 76.8187389,49.7158247 81.4731135,49.7158247 C86.1293234,49.7158247 91.4833671,47.926645 97.5352445,44.3482857 L97.5352163,44.3482381 C97.8620216,44.1550044 98.2309354,44.0957411 98.5781677,44.1540639 C98.7876537,44.1639477 98.9936048,44.2135582 99.1849721,44.3005033 L99.1849547,44.3005415 C105.245568,47.0540949 110.659588,48.4308717 115.427016,48.4308717 C119.737048,48.4308717 124.575553,47.3056032 129.942532,45.0550663 C129.945286,45.0363894 129.948167,45.0174496 129.951178,44.9982404 C130.21522,43.3135683 128.502769,39.8653955 127.694235,38.828373 C126.46412,37.2506321 124.943008,36.6249315 123.840059,36.6249315 C121.933858,36.6249315 119.013107,35.9419828 116.808932,34.2926509 C116.420812,34.0022293 115.999443,33.7085649 115.544826,33.4116575 C115.262904,33.2275357 115.01675,32.9991565 114.814206,32.7378589 C105.306427,23.2266819 94.2179471,18.4710935 81.5487652,18.4710935 C68.890084,18.4710935 58.4443322,22.8972101 50.2115096,31.7494433 C50.1622862,31.80688 50.1106985,31.8626521 50.056794,31.916603 C50.0325692,31.9429025 50.0083637,31.9692406 49.9841775,31.9956173 L49.9813193,31.9895297 Z M48.0566094,27.8901702 L48.0400008,27.8547963 C57.746176,18.6182654 68.9157641,14 81.5487652,14 C94.1817663,14 105.349912,18.5771627 115.053202,27.7314882 L115.053202,27.7335425 C115.060833,27.7413779 115.068348,27.7493875 115.075742,27.7575709 L115.075758,27.7575568 C117.458312,30.3943494 120.379746,31.7127457 123.840059,31.7127457 C128.557118,31.7127457 131.911087,35.8079848 133.901967,43.9984631 C133.925463,44.0951283 133.944137,44.1929023 133.957915,44.2914235 C134.090922,45.2422171 134.146552,45.9210088 134.124804,46.3277986 C134.114698,46.516821 134.07092,46.9644559 133.993463,47.6707028 C133.95989,47.9768389 133.831243,48.2586384 133.633116,48.4811891 C133.427403,48.8521773 133.142668,49.1802668 132.792142,49.4392302 C131.571445,50.3410644 130.150582,51.0989581 128.529554,51.7129115 L118.32772,78.2895987 C117.951604,79.2694137 117.051631,79.8939305 116.069984,79.9662763 C115.932685,79.9884668 115.791817,80 115.648255,80 L98.161337,80 C96.7126733,80 95.5382993,78.825626 95.5382993,77.3769624 C95.5382993,75.9282987 96.7126733,74.7539247 98.161337,74.7539247 L114.06563,74.7539247 L122.32612,53.2346139 C120.231456,53.5295026 117.931755,53.676947 115.427016,53.676947 C108.0866,53.676947 102.507146,52.4106236 98.6886547,49.8779769 C94.9414992,53.7276619 89.2029855,55.6525044 81.4731135,55.6525044 C73.791704,55.6525044 68.0670103,53.7517219 64.2990324,49.9501568 C60.4836931,52.4346836 54.9408491,53.676947 47.6705005,53.676947 C45.2405055,53.676947 43.0034938,53.5381711 40.9594653,53.2606194 L49.2099722,74.7539247 L82.008799,74.7539247 C83.4574626,74.7539247 84.6318366,75.9282987 84.6318366,77.3769624 C84.6318366,78.825626 83.4574626,80 82.008799,80 L47.4492758,80 C46.2186314,80 45.1859297,79.1525064 44.9029663,78.0093148 C44.8032317,77.8564595 44.7180281,77.6908062 44.6499747,77.513521 L34.7758091,51.7904403 C33.0681155,51.1631434 31.5779697,50.3794061 30.3053717,49.4392284 C29.5397602,48.8735993 29.0880123,47.9781943 29.0880123,47.0263029 L29.0880123,45.807834 C29.0880123,45.6945702 29.0993859,45.5839629 29.1210534,45.4770918 C29.1492065,45.1451122 29.1953506,44.7498894 29.2594857,44.2914235 C29.2732634,44.1929023 29.2919373,44.0951283 29.315434,43.9984631 C31.3063136,35.8079848 34.6602828,31.7127457 39.3773415,31.7127457 C43.0912775,31.7127457 45.9283106,30.4981902 47.8884409,28.0690791 L47.888399,28.0690453 C47.9406764,28.0042599 47.9969609,27.944612 48.0566094,27.8901702 Z M82.8747779,20.9473684 C84.3136251,20.9473684 84.3978979,21.8068329 83.0630066,22.867036 L72.5891903,31.1855956 C71.254299,32.2457987 69.0057397,33.1052632 67.5668926,33.1052632 C66.1280455,33.1052632 66.0437727,32.2457987 67.378664,31.1855956 L77.8524803,22.867036 C79.1873716,21.8068329 81.4359308,20.9473684 82.8747779,20.9473684 Z M92.8059209,22.6842105 C94.244768,22.6842105 94.3290408,23.543675 92.9941495,24.6038781 L85.6155061,31.4658001 C84.2806148,32.5260032 82.0320555,33.3854677 80.5932084,33.3854677 C79.1543613,33.3854677 79.0700885,32.5260032 80.4049798,31.4658001 L87.7836232,24.6038781 C89.1185145,23.543675 91.3670738,22.6842105 92.8059209,22.6842105 Z M14.0691729,67.2305478 C14.0691729,64.3497027 13.5834563,61.8541244 12.6120086,59.7437379 C11.6405608,57.6333514 10.4346438,55.8747224 8.99422127,54.4677981 C7.55379874,53.0608737 6.01290473,52.0224452 4.37149302,51.3524812 C2.7300813,50.6825172 1.27293153,50.3475403 0,50.3475403 L0,43.3129538 C1.27293153,43.3129538 2.7300813,43.0282234 4.37149302,42.458754 C6.01290473,41.8892847 7.55379874,40.9513492 8.99422127,39.6449194 C10.4346438,38.3384897 11.6405608,36.6468561 12.6120086,34.5699678 C13.5834563,32.4930795 14.0691729,29.9137569 14.0691729,26.8319227 L14.0691729,16.5815252 C14.0691729,14.169655 14.4543964,11.958807 15.224855,9.94891515 C15.9953136,7.93902325 17.0672398,6.19714307 18.440666,4.72322234 C19.8140921,3.24930162 21.4554792,2.09363111 23.3648765,1.25617615 C25.2742738,0.418721198 27.3678798,0 29.6457573,0 L44.2174006,0 L44.2174006,7.03458647 L33.1630505,7.03458647 C28.9422775,7.03458647 26.0112291,8.03951734 24.3698174,10.0494092 C22.7284057,12.0593011 21.9077121,15.0405961 21.9077121,18.9933835 L21.9077121,28.7413104 C21.9077121,31.4881627 21.4052467,33.9334945 20.4003008,36.0773792 C19.3953548,38.2212639 18.1894378,40.0133906 16.7825134,41.4538131 C15.3755891,42.8942356 13.9351882,44.0331573 12.4612675,44.8706122 C10.9873467,45.7080672 9.78142968,46.1937838 8.84348013,46.3277766 L8.84348013,46.9307411 C9.71443328,47.0647339 10.8868526,47.5839482 12.3607734,48.4883996 C13.8346941,49.3928509 15.275095,50.6322657 16.6820193,52.206681 C18.0889437,53.7810963 19.3116096,55.6402184 20.3500537,57.7841031 C21.3884979,59.9279878 21.9077121,62.3063242 21.9077121,64.9191837 L21.9077121,74.5666165 C21.9077121,78.6533967 22.7786522,81.6681894 24.5205585,83.6110849 C26.2624648,85.5539804 29.1767644,86.5254135 33.2635446,86.5254135 L44.2174006,86.5254135 L44.2174006,93.56 L29.6457573,93.56 C24.9560095,93.56 21.1875187,92.1698456 18.3401719,89.3894952 C15.492825,86.6091447 14.0691729,82.505677 14.0691729,77.0789689 L14.0691729,67.2305478 Z M149.148228,67.2305478 L149.148228,77.0789689 C149.148228,82.505677 147.724576,86.6091447 144.877229,89.3894952 C142.029882,92.1698456 138.261391,93.56 133.571643,93.56 L119,93.56 L119,86.5254135 L129.953856,86.5254135 C134.040636,86.5254135 136.954936,85.5539804 138.696842,83.6110849 C140.438748,81.6681894 141.309689,78.6533967 141.309689,74.5666165 L141.309689,64.9191837 C141.309689,62.3063242 141.828903,59.9279878 142.867347,57.7841031 C143.905791,55.6402184 145.128457,53.7810963 146.535381,52.206681 C147.942306,50.6322657 149.382707,49.3928509 150.856627,48.4883996 C152.330548,47.5839482 153.502967,47.0647339 154.373921,46.9307411 L154.373921,46.3277766 C153.435971,46.1937838 152.230054,45.7080672 150.756133,44.8706122 C149.282212,44.0331573 147.841812,42.8942356 146.434887,41.4538131 C145.027963,40.0133906 143.822046,38.2212639 142.8171,36.0773792 C141.812154,33.9334945 141.309689,31.4881627 141.309689,28.7413104 L141.309689,18.9933835 C141.309689,15.0405961 140.488995,12.0593011 138.847583,10.0494092 C137.206172,8.03951734 134.275123,7.03458647 130.05435,7.03458647 L119,7.03458647 L119,0 L133.571643,0 C135.849521,0 137.943127,0.418721198 139.852524,1.25617615 C141.761921,2.09363111 143.403309,3.24930162 144.776735,4.72322234 C146.150161,6.19714307 147.222087,7.93902325 147.992546,9.94891515 C148.763004,11.958807 149.148228,14.169655 149.148228,16.5815252 L149.148228,26.8319227 C149.148228,29.9137569 149.633944,32.4930795 150.605392,34.5699678 C151.57684,36.6468561 152.782757,38.3384897 154.223179,39.6449194 C155.663602,40.9513492 157.204496,41.8892847 158.845908,42.458754 C160.487319,43.0282234 161.944469,43.3129538 163.217401,43.3129538 L163.217401,50.3475403 C161.944469,50.3475403 160.487319,50.6825172 158.845908,51.3524812 C157.204496,52.0224452 155.663602,53.0608737 154.223179,54.4677981 C152.782757,55.8747224 151.57684,57.6333514 150.605392,59.7437379 C149.633944,61.8541244 149.148228,64.3497027 149.148228,67.2305478 Z" id="Combined-Shape" fill="#383A3F" fill-rule="nonzero"></path>
    </g>
</svg>
